<?xml version="1.0" encoding="UTF-8" standalone="no"?>
<!-- Created with Inkscape (http://www.inkscape.org/) -->

<svg
   xmlns:dc="http://purl.org/dc/elements/1.1/"
   xmlns:cc="http://creativecommons.org/ns#"
   xmlns:rdf="http://www.w3.org/1999/02/22-rdf-syntax-ns#"
   xmlns:svg="http://www.w3.org/2000/svg"
   xmlns="http://www.w3.org/2000/svg"
   xmlns:sodipodi="http://sodipodi.sourceforge.net/DTD/sodipodi-0.dtd"
   xmlns:inkscape="http://www.inkscape.org/namespaces/inkscape"
   width="24.349852mm"
   height="17.782257mm"
   viewBox="0 0 86.279002 63.007998"
   id="svg6832"
   version="1.1"
   inkscape:version="0.91 r13725"
   sodipodi:docname="activating.svg">
  <defs
     id="defs6834" />
  <sodipodi:namedview
     id="base"
     pagecolor="#ffffff"
     bordercolor="#666666"
     borderopacity="1.0"
     inkscape:pageopacity="0.0"
     inkscape:pageshadow="2"
     inkscape:zoom="2.8"
     inkscape:cx="46.121079"
     inkscape:cy="24.951921"
     inkscape:document-units="px"
     inkscape:current-layer="layer1"
     showgrid="false"
     inkscape:window-width="838"
     inkscape:window-height="994"
     inkscape:window-x="840"
     inkscape:window-y="0"
     inkscape:window-maximized="0"
     fit-margin-top="0"
     fit-margin-left="0"
     fit-margin-right="0"
     fit-margin-bottom="0" />
  <metadata
     id="metadata6837">
    <rdf:RDF>
      <cc:Work
         rdf:about="">
        <dc:format>image/svg+xml</dc:format>
        <dc:type
           rdf:resource="http://purl.org/dc/dcmitype/StillImage" />
        <dc:title></dc:title>
      </cc:Work>
    </rdf:RDF>
  </metadata>
  <g
     inkscape:label="Layer 1"
     inkscape:groupmode="layer"
     id="layer1"
     transform="translate(10.524704,-129.5112)">
    <g
       id="g6792"
       transform="translate(-221.27263,-162.36422)">
      <path
         id="path3444_1_"
         d="m 271.69237,291.87542 c -0.5,0.3 -1,0.8 -1.5,1.1 -2.9,2 -6,3.9 -9.1,5.6 -3,1.5 -5.9,3.1 -9.1,4.4 -1.5,0.7 -3.1,1.3 -4.6,1.9 -4.2,1.5 -8.4,2.9 -12.8,3.9 -2.3,0.6 -4.7,1 -7.1,1.5 -1.5,0.3 -3.1,0.5 -4.6,0.7 -2.4,0.2 -4.7,0.5 -7.1,0.6 -1.6,0.1 -3.1,0.2 -4.7,0.4 -0.5,0.4 -0.2,1.1 -0.3,1.6 -0.1,13.7 0,27.4 0,41.1 0.3,0.4 1,0.1 1.5,0.1 5.4,-0.1 10.7,-0.5 16.1,-1.2 1.7,-0.2 3.3,-0.5 5,-0.7 2.6,-0.5 5.2,-1 7.9,-1.5 2.5,-0.5 5,-1.2 7.5,-1.8 5.8,-1.6 11.6,-3.5 17.2,-5.8 2,-0.8 4,-1.7 6,-2.5 1.1,-0.6 2.4,-1.1 3.5,-1.7 3.8,-1.9 7.6,-3.8 11.2,-6 3.5,-2.1 7,-4.2 10.2,-6.7 0.4,-0.4 -0.2,-1 -0.4,-1.4 -5.1,-7 -10.2,-14.1 -15.3,-21.1 -2.8,-3.8 -5.6,-7.8 -8.5,-11.6 -0.3,-0.3 -0.5,-0.9 -1,-0.9 l 0,0 z m -26.2,19.4 c 1.6,-0.1 3.1,0.5 4.5,1.3 1.5,0.9 2.5,2.5 3.3,4 1,1.8 1.5,3.7 2.2,5.6 0.8,2.3 1.9,4.6 2.5,7 0.6,1.9 1.7,3.5 2.3,5.4 0.1,0.2 0,0.3 -0.2,0.2 -1.3,-0.8 -2.9,-1.2 -4.4,-1 -0.6,0.1 -1.2,0.3 -1.7,0.6 -0.6,0.2 -0.6,1 -0.7,1.5 0,0.6 0.3,1.1 0.3,1.7 0.2,1.1 0.6,2.1 0.9,3.2 -1,-0.7 -1.9,-1.7 -3,-2.4 -1.1,-0.8 -2.4,-1.6 -3.8,-1.7 -0.9,0.2 -1.2,1.2 -1.6,1.9 -0.5,1.2 -0.7,2.5 -1.1,3.8 -0.3,-1.8 -0.4,-3.7 -1.1,-5.4 -0.2,-0.6 -0.9,-1.2 -1.5,-0.8 -0.9,0.5 -1.3,1.6 -1.8,2.4 -0.3,0.5 -0.4,1.1 -0.7,1.5 -0.1,0.2 -0.3,0.4 -0.3,0 -0.6,-3 -2.2,-5.9 -1.8,-9 0.5,-2.5 0.8,-5.2 0,-7.7 -0.7,-1.9 -0.7,-4.1 -0.1,-6 0.1,-0.4 0.2,-0.8 0.4,-1.2 0.9,-2.1 2.6,-4.2 5,-4.8 0.6,0 1.5,-0.1 2.4,-0.1 l 0,0 z"
         inkscape:connector-curvature="0"
         style="fill:#221e20" />
      <path
         id="path3446_1_"
         d="m 244.49237,315.37542 c -0.8,-0.1 -1.5,0.3 -1.9,1 -1,1.5 -1.5,3.2 -1.5,5 -0.1,1.4 0.3,2.8 1.3,3.8 0.8,0.8 1.5,1.7 2.5,2.2 1.2,0.2 2.5,0.1 3.6,-0.6 0.9,-0.6 1.9,-1.1 2.5,-2 0.4,-1.6 0.6,-3.2 0.7,-4.9 0.1,-1.4 -1.1,-2.3 -2,-3 -1,-0.8 -2.2,-1.5 -3.5,-1.5 -0.7,0 -1.2,0 -1.7,0 z"
         inkscape:connector-curvature="0"
         style="fill:#221e20" />
    </g>
  </g>
</svg>
