<?xml version="1.0" encoding="UTF-8" standalone="no"?>
<!-- Created with Inkscape (http://www.inkscape.org/) -->

<svg
   xmlns:dc="http://purl.org/dc/elements/1.1/"
   xmlns:cc="http://creativecommons.org/ns#"
   xmlns:rdf="http://www.w3.org/1999/02/22-rdf-syntax-ns#"
   xmlns:svg="http://www.w3.org/2000/svg"
   xmlns="http://www.w3.org/2000/svg"
   xmlns:sodipodi="http://sodipodi.sourceforge.net/DTD/sodipodi-0.dtd"
   xmlns:inkscape="http://www.inkscape.org/namespaces/inkscape"
   width="21.655392mm"
   height="24.05195mm"
   viewBox="0 0 76.731703 85.223447"
   id="svg6832"
   version="1.1"
   inkscape:version="0.91 r13725"
   sodipodi:docname="avoiding.svg">
  <defs
     id="defs6834" />
  <sodipodi:namedview
     id="base"
     pagecolor="#ffffff"
     bordercolor="#666666"
     borderopacity="1.0"
     inkscape:pageopacity="0.0"
     inkscape:pageshadow="2"
     inkscape:zoom="2.8"
     inkscape:cx="14.754854"
     inkscape:cy="32.344397"
     inkscape:document-units="px"
     inkscape:current-layer="layer1"
     showgrid="false"
     inkscape:window-width="838"
     inkscape:window-height="994"
     inkscape:window-x="840"
     inkscape:window-y="0"
     inkscape:window-maximized="0"
     fit-margin-top="0"
     fit-margin-left="0"
     fit-margin-right="0"
     fit-margin-bottom="0" />
  <metadata
     id="metadata6837">
    <rdf:RDF>
      <cc:Work
         rdf:about="">
        <dc:format>image/svg+xml</dc:format>
        <dc:type
           rdf:resource="http://purl.org/dc/dcmitype/StillImage" />
        <dc:title></dc:title>
      </cc:Work>
    </rdf:RDF>
  </metadata>
  <g
     inkscape:label="Layer 1"
     inkscape:groupmode="layer"
     id="layer1"
     transform="translate(-20.84152,-114.68824)">
    <g
       id="g6779"
       transform="translate(-227.26807,27.110684)">
      <path
         id="path3430_1_"
         d="m 272.30959,87.577558 c -1,1.2 -1.8,2.5 -2.8,3.8 -1.9,2.6 -3.8,5.2 -5.6,7.8 -1.9,2.500002 -3.7,5.200002 -5.6,7.700002 -2.5,3.49999 -5.2,6.99999 -7.7,10.59999 -0.8,1.1 -1.8,2.2 -2.5,3.5 0,0.6 0.7,0.9 1.1,1.2 2.7,2.2 5.5,4.5 8,6.9 3.7,3.6 7.3,7.3 10.4,11.4 3.3,4.2 6.3,8.6 9,13.2 1.4,2.4 2.7,4.8 3.9,7.3 1.5,2.9 2.7,5.9 3.9,9 0.5,0.8 0.5,1.9 1.1,2.7 0.6,0.4 1.3,-0.3 1.9,-0.3 1.3,-0.4 2.6,-0.9 3.9,-1.2 3.1,-1 6.1,-2.1 9.2,-3 4.6,-1.5 9.1,-3 13.7,-4.4 0.9,-0.3 1.8,-0.7 2.8,-0.9 2.3,-0.8 4.6,-1.5 6.9,-2.3 0.3,-0.2 1.1,-0.3 0.9,-0.8 -0.2,-0.4 -0.2,-0.9 -0.5,-1.3 -0.4,-1.4 -1.1,-2.8 -1.5,-4.2 -0.5,-0.9 -0.7,-1.9 -1.1,-2.8 -1.2,-3 -2.6,-5.9 -3.9,-8.8 -1.3,-2.7 -2.7,-5.4 -4.2,-8 -1.2,-2.2 -2.6,-4.4 -3.9,-6.5 -0.4,-0.7 -0.9,-1.4 -1.3,-2.1 -0.6,-0.7 -1,-1.5 -1.5,-2.2 -1,-1.7 -2.4,-3.2 -3.4,-4.9 -2.1,-2.6 -4.1,-5.4 -6.4,-7.9 -4.4,-5.09999 -9.2,-9.99999 -14.2,-14.599992 -2.1,-1.9 -4.3,-3.7 -6.5,-5.5 -1.3,-1 -2.6,-2.1 -4,-3 0,-0.4 -0.1,-0.4 -0.1,-0.4 l 0,0 z m 16.4,27.699992 c 0.5,0 0.4,0.7 0.4,1 0.1,0.6 -0.2,1.5 0.5,1.8 0.6,0.1 1.2,0.3 1.8,0.5 0.7,0.1 0.8,-0.7 1,-1.1 0.2,-0.5 0.2,-1.1 0.7,-1.4 0.3,-0.1 0.6,0 0.5,0.3 0.1,0.9 -0.6,1.8 -0.2,2.7 2.4,0.9 5.1,1.9 6.6,4.2 0.5,0.7 0.6,1.8 0,2.5 -1,1.3 -2.8,1.6 -4.3,2 -1.5,0.4 -3.1,0.6 -4.5,1.3 -0.7,0.5 -0.4,1.5 -0.3,2.3 0.3,1.5 0.9,2.9 1.5,4.3 0.3,0.5 0.7,1.1 1.2,1.5 1.4,0.4 2.8,0.7 4.2,1 0.8,0.1 1.6,0.4 2.4,0.6 0.9,0.3 1.8,0.8 2.1,1.7 0.3,0.8 -0.1,1.7 -0.2,2.5 -0.3,1.5 -1.2,2.8 -2.1,3.9 -0.3,0.4 0,1 0.3,1.3 0.1,0.4 -0.5,0.8 -0.8,0.5 -0.3,-0.2 -0.6,-0.8 -1,-0.4 -0.7,0.5 -1.5,0.9 -2.4,1.1 -0.3,0.4 0.5,0.9 0.1,1.3 -0.1,0.2 -0.4,0.5 -0.6,0.2 -0.4,-0.4 -0.4,-1 -0.9,-1.4 -0.9,-0.2 -1.8,-0.1 -2.6,0 -0.4,0.2 -0.2,0.7 -0.2,1.1 -0.1,0.4 0.1,0.9 -0.1,1.3 -0.2,0.3 -0.6,0.1 -0.7,-0.2 -0.5,-0.6 -0.1,-1.6 -0.5,-2.2 -0.7,-0.3 -1.5,-0.5 -2.2,-0.4 -0.2,0.5 0,1.2 -0.3,1.8 -0.2,0.2 -0.4,0.6 -0.6,0.2 -0.4,-0.4 -0.2,-1.1 -0.3,-1.7 0.1,-0.5 -0.1,-1 -0.7,-1 -0.6,-0.2 -1.2,-0.5 -1.8,-0.7 -0.4,0.2 -0.4,0.8 -0.6,1.2 -0.2,0.4 -0.1,1 -0.4,1.3 -0.3,0.1 -0.9,0.2 -1,-0.3 0.2,-0.6 0.4,-1.3 0.6,-2 0.1,-0.3 0.4,-0.7 -0.1,-0.8 -0.6,-0.3 -1.2,-0.9 -2,-0.9 -0.8,0.3 -1,1.2 -1.5,1.8 -0.2,0.3 -0.7,0.7 -1,0.3 -0.2,-0.6 0.5,-1.2 0.7,-1.7 0.1,-0.4 0.8,-0.8 0.5,-1.3 -0.5,-0.5 -1.1,-1 -1.7,-1.3 -0.7,-0.1 -1.1,0.7 -1.6,1 -0.3,0.2 -0.6,0.7 -1,0.7 -0.3,-0.1 -0.4,-0.5 -0.2,-0.7 0.5,-0.7 1.1,-1.2 1.6,-1.8 -0.1,-0.5 -0.7,-0.8 -0.9,-1.3 -0.3,-0.3 -0.6,-1.1 -1.1,-0.8 -0.3,0.3 -0.8,0.3 -1.1,0.6 -0.4,0.1 -1,0.3 -1.2,-0.1 0,-0.5 0.6,-0.6 0.9,-0.9 0.4,-0.3 1.3,-0.6 1.1,-1.3 -0.2,-0.6 -0.4,-1.2 -0.6,-1.8 -0.4,-0.6 -1.1,-0.1 -1.6,0 -0.4,0 -1.1,0.3 -1.4,-0.1 -0.2,-0.5 0.5,-0.8 0.9,-0.8 0.5,-0.2 1.3,-0.1 1.6,-0.6 0,-0.7 -0.3,-1.4 -0.4,-2 -0.1,-0.7 -0.9,-0.8 -1.4,-0.8 -0.4,-0.1 -1,0.1 -1.2,-0.3 -0.2,-0.5 0.4,-0.6 0.8,-0.6 0.4,-0.1 1,0.1 1.3,-0.2 -0.1,-1 0,-2.2 -0.6,-3.1 -0.2,-0.3 -0.9,-0.4 -0.8,-0.9 0.2,-0.6 1.1,0 1.4,-0.4 0,-1 0.7,-1.8 1,-2.7 -0.1,-0.4 -0.7,-0.7 -0.3,-1.2 0.3,-0.4 0.8,0.1 1.2,0 0.7,-0.3 1.2,-1 1.8,-1.5 0.2,-0.2 0.6,-0.6 0.3,-0.9 -0.2,-0.3 -0.7,-0.6 -0.6,-1 0.3,-0.5 0.9,-0.2 1.2,0.1 0.3,0.3 0.6,0.7 1.1,0.4 0.7,-0.3 1.5,-0.6 2,-1.1 0.1,-0.6 -0.4,-1.1 -0.6,-1.7 -0.3,-0.5 0.5,-0.9 0.8,-0.5 0.5,0.4 0.5,1.3 1.2,1.5 0.6,0 1.1,-0.4 1.7,-0.6 0.4,-0.2 1,-0.5 0.7,-1.1 0,-0.5 -0.2,-1.1 0,-1.5 0.2,-0.3 0.6,-0.2 0.6,0.1 0.3,0.5 0.3,1.2 0.5,1.7 1,0 2,0.1 2.9,0 0.3,-0.5 0.1,-1.2 0.3,-1.8 -0.1,-0.4 -0.1,-0.7 0.2,-0.7 l 0,0 z"
         inkscape:connector-curvature="0"
         style="fill:#d13995" />
      <path
         id="path3432_1_"
         d="m 285.60959,119.87755 c -0.7,-0.1 -1.3,0.5 -2,0.6 -1.8,0.8 -3.6,1.6 -5.3,2.6 -1.5,1.3 -3.1,2.6 -3.9,4.5 -0.2,0.7 -0.1,1.4 -0.1,2.2 0.3,2.9 1,5.8 1.9,8.6 0.8,2 2.6,3.5 4.4,4.7 1.6,1.1 3.2,2.1 5.1,2.8 1.7,0.7 3.5,1.1 5.3,1.3 1.8,0 3.6,0.1 5.3,-0.1 1,-0.5 1.8,-1.3 2.5,-2.2 0.7,-1 1.3,-2.2 1.4,-3.5 -0.1,-0.6 -0.8,-0.7 -1.3,-0.9 -2,-0.6 -4.2,-0.9 -6.2,-1.5 -0.9,-0.3 -1.6,-1.1 -2,-1.9 -0.5,-0.8 -0.8,-1.6 -1.2,-2.4 -0.7,-1.8 -1.1,-3.8 -0.9,-5.8 0.1,-1.1 1.3,-1.6 2.2,-2 2.2,-0.9 4.7,-0.9 6.9,-2 0.5,-0.3 0,-0.9 -0.3,-1.2 -1.6,-1.5 -3.7,-2.1 -5.7,-2.8 -1.2,-0.3 -2.4,-0.7 -3.7,-0.9 -0.7,-0.1 -1.5,-0.1 -2.4,-0.1 l 0,0 z m -4.6,8.9 c 1.1,-0.1 2.2,0.2 3.1,0.9 1.9,1.3 3.2,3.3 3.8,5.4 0.3,1 0.2,2.1 0.2,3.1 -0.1,1.1 -0.6,2.1 -1.4,2.8 -1.2,1.2 -3.2,1.2 -4.6,0.3 -1.5,-0.8 -2.6,-2 -3.5,-3.4 -0.5,-0.7 -0.7,-1.7 -1,-2.5 -0.3,-1.2 -0.3,-2.6 -0.1,-3.8 0.4,-1.3 1.4,-2.3 2.6,-2.9 0.3,0 0.6,0 0.9,0.1 l 0,0 z"
         inkscape:connector-curvature="0"
         style="fill:#d13995" />
    </g>
  </g>
</svg>
