<?xml version="1.0" encoding="UTF-8" standalone="no"?>
<!-- Created with Inkscape (http://www.inkscape.org/) -->

<svg
   xmlns:dc="http://purl.org/dc/elements/1.1/"
   xmlns:cc="http://creativecommons.org/ns#"
   xmlns:rdf="http://www.w3.org/1999/02/22-rdf-syntax-ns#"
   xmlns:svg="http://www.w3.org/2000/svg"
   xmlns="http://www.w3.org/2000/svg"
   xmlns:sodipodi="http://sodipodi.sourceforge.net/DTD/sodipodi-0.dtd"
   xmlns:inkscape="http://www.inkscape.org/namespaces/inkscape"
   width="21.612806mm"
   height="24.045332mm"
   viewBox="0 0 76.58081 85.199996"
   id="svg6832"
   version="1.1"
   inkscape:version="0.91 r13725"
   sodipodi:docname="deregulating.svg">
  <defs
     id="defs6834" />
  <sodipodi:namedview
     id="base"
     pagecolor="#ffffff"
     bordercolor="#666666"
     borderopacity="1.0"
     inkscape:pageopacity="0.0"
     inkscape:pageshadow="2"
     inkscape:zoom="2.8"
     inkscape:cx="32.997273"
     inkscape:cy="42.207771"
     inkscape:document-units="px"
     inkscape:current-layer="layer1"
     showgrid="false"
     inkscape:window-width="838"
     inkscape:window-height="994"
     inkscape:window-x="840"
     inkscape:window-y="0"
     inkscape:window-maximized="0"
     fit-margin-top="0"
     fit-margin-left="0"
     fit-margin-right="0"
     fit-margin-bottom="0" />
  <metadata
     id="metadata6837">
    <rdf:RDF>
      <cc:Work
         rdf:about="">
        <dc:format>image/svg+xml</dc:format>
        <dc:type
           rdf:resource="http://purl.org/dc/dcmitype/StillImage" />
        <dc:title></dc:title>
      </cc:Work>
    </rdf:RDF>
  </metadata>
  <g
     inkscape:label="Layer 1"
     inkscape:groupmode="layer"
     id="layer1"
     transform="translate(-2.5991015,-124.57505)">
    <g
       id="g6808"
       transform="translate(-61.083609,45.699628)">
      <g
         transform="translate(6.2923729,3.7754237)"
         id="g3267_1_">
        <path
           id="path3127_1_"
           d="m 104.3,119.3 c -0.1,0.3 0,2.5 0.1,2.6 0.1,0 0.3,-0.3 0.6,-0.7 l 0.5,-0.7 -0.5,-0.6 c -0.2,-0.3 -0.4,-0.6 -0.4,-0.6 0,-0.2 -0.2,-0.1 -0.3,0 z"
           inkscape:connector-curvature="0"
           style="fill:#010101" />
        <g
           id="g3259_1_">
          <path
             id="path3127-5_1_"
             d="m 98.4,111.4 c 0.2,0.2 2.2,1.3 2.3,1.2 0,-0.1 -0.1,-0.4 -0.3,-0.8 l -0.4,-0.8 -0.7,0.1 c -0.4,0.1 -0.7,0.1 -0.8,0.1 -0.1,-0.2 -0.2,0.1 -0.1,0.2 l 0,0 z"
             inkscape:connector-curvature="0"
             style="fill:#010101" />
          <path
             id="path3127-5-5_1_"
             d="m 88.6,112.8 c 0.3,0 2.2,-1.3 2.2,-1.4 0,-0.1 -0.4,-0.1 -0.9,-0.2 l -0.9,-0.1 -0.3,0.7 c -0.1,0.4 -0.3,0.7 -0.3,0.7 -0.1,0.2 0.1,0.3 0.2,0.3 z"
             inkscape:connector-curvature="0"
             style="fill:#010101" />
          <path
             id="path3127-5-3_1_"
             d="m 85,121.9 c 0.1,-0.3 0,-2.5 -0.1,-2.6 -0.1,0 -0.3,0.3 -0.6,0.7 l -0.5,0.7 0.5,0.6 c 0.2,0.3 0.4,0.6 0.4,0.6 0,0.2 0.2,0.1 0.3,0 l 0,0 z"
             inkscape:connector-curvature="0"
             style="fill:#010101" />
          <path
             id="path3127-5-8_1_"
             d="m 90.6,129.4 c -0.2,-0.2 -2.2,-1.3 -2.3,-1.2 0,0.1 0.1,0.4 0.3,0.8 l 0.4,0.8 0.7,-0.1 c 0.4,-0.1 0.7,-0.1 0.8,-0.1 0.1,0.1 0.2,-0.1 0.1,-0.2 l 0,0 z"
             inkscape:connector-curvature="0"
             style="fill:#010101" />
          <path
             id="path3127-5-80_1_"
             d="m 100.4,128.2 c -0.3,0 -2.2,1.3 -2.2,1.4 0,0.1 0.4,0.1 0.9,0.2 l 0.9,0.1 0.3,-0.7 c 0.1,-0.4 0.3,-0.7 0.3,-0.7 0.1,-0.1 -0.1,-0.3 -0.2,-0.3 l 0,0 z"
             inkscape:connector-curvature="0"
             style="fill:#010101" />
        </g>
      </g>
      <path
         id="path3390_1_"
         d="m 116.09237,79.275424 c -0.7,0.2 -1.1,0.9 -1.8,1.2 -5.2,4.1 -10.2,8.5 -14.799997,13.3 -2.2,2.3 -4.5,4.5 -6.5,6.899996 -1.9,2.1 -3.7,4.3 -5.5,6.5 -1.4,1.8 -2.8,3.7 -4.1,5.6 -3.1,4.4 -6,8.9 -8.6,13.6 -2.3,4.1 -4.5,8.2 -6.2,12.5 -0.7,1.2 -1,2.6 -1.7,3.8 -0.3,0.7 -0.5,1.5 -0.9,2.1 -0.4,1 -0.8,2.1 -1.1,3.1 -0.5,1 -0.8,2.1 -1.2,3.1 -0.1,0.6 0.6,0.7 1,0.8 1.7,0.6 3.4,1.1 5.1,1.6 4.7,1.6 9.4,3.1 14.1,4.6 2.9,0.9 5.7,1.9 8.6,2.8 2,0.6 3.9,1.3 5.9,1.9 1.4,0.5 2.899997,0.9 4.299997,1.4 0.6,0 0.7,-0.8 0.9,-1.2 0.4,-1 0.7,-2 1.1,-2.9 0.3,-0.9 0.7,-1.8 1,-2.7 0.7,-1.3 1.1,-2.7 1.8,-4 0.4,-0.6 0.5,-1.2 0.9,-1.8 0.7,-1.4 1.4,-2.7 2.1,-4.1 0.7,-1.3 1.5,-2.6 2.2,-3.9 0.9,-1.2 1.5,-2.6 2.4,-3.8 3.5,-5.2 7.3,-10.2 11.6,-14.8 3.1,-3.2 6.3,-6.4 9.7,-9.3 1.2,-1.1 2.6,-2 3.7,-3.1 0.4,-0.3 0,-0.7 -0.2,-1 -1.5,-1.9 -2.7,-3.9 -4.2,-5.8 -1.4,-2 -2.9,-4 -4.3,-5.999996 -0.4,-0.3 -0.5,-0.9 -0.9,-1.2 -1.3,-1.8 -2.7,-3.6 -4,-5.5 -1,-1.3 -2,-2.6 -2.9,-4 -1.8,-2.4 -3.5,-4.9 -5.3,-7.3 -0.8,-0.9 -1.2,-2.1 -2.2,-2.8 0.1,0.4 0,0.4 0,0.4 l 0,0 z m -15.2,28.599996 c 1.4,0 2.8,0.4 3.9,1.3 1.2,0.9 2.1,2.1 3.1,3.3 0.6,0.5 1.5,0.2 2.3,0.4 1.5,0.3 2.9,0.8 4,1.8 0.8,0.7 1.4,1.7 1.8,2.7 -0.1,1.4 0.1,2.7 -0.1,4.1 -0.3,0.9 -0.6,1.9 -1.2,2.7 0,0.3 0.4,0.6 0.4,0.9 1,2 1.4,4.5 0.6,6.7 -0.8,1.9 -2.7,3.3 -4.6,3.8 -0.8,0.1 -1.6,0.5 -2.4,0.4 -1,0 -1.4,1.1 -2,1.7 -1.1,1.3 -2.5,2.5 -4.2,2.8 -1.3,0.1 -2.799997,0.2 -3.999997,-0.4 -1.3,-0.5 -2.2,-1.6 -3.1,-2.6 -0.5,-0.6 -0.9,-1.5 -1.8,-1.5 -2,-0.2 -4.1,-0.7 -5.6,-2.2 -0.6,-0.5 -1.2,-1.1 -1.4,-1.8 -0.3,-0.7 -0.4,-1.4 -0.6,-2.1 -0.1,-1.9 0.7,-3.7 1.4,-5.5 0.1,-0.5 -0.4,-0.9 -0.4,-1.3 -0.3,-0.7 -0.6,-1.4 -0.7,-2.2 -0.7,-2.5 0.3,-5.4 2.5,-6.8 0.7,-0.5 1.4,-0.9 2.2,-1.1 1.1,-0.4 2.3,-0.1 3.3,-0.7 0.7,-0.6 1.1,-1.5 1.8,-2.1 0.9,-1 1.9,-1.7 3.2,-2.1 0.4,-0.2 0.999997,-0.2 1.599997,-0.2 l 0,0 z"
         inkscape:connector-curvature="0"
         style="fill:#7f4097" />
      <path
         id="path3392_1_"
         d="m 92.492373,114.87542 c -1.3,0.3 -2.7,0.8 -3.5,1.9 -0.6,0.7 -0.8,1.6 -0.9,2.5 0.2,0.8 0.2,1.7 0.7,2.4 0.4,0.3 0.7,-0.3 1,-0.5 0.8,-0.7 1.6,-1.5 2.3,-2.3 0.1,-1.3 0.5,-2.5 0.9,-3.7 0,-0.2 -0.3,-0.3 -0.5,-0.3 l 0,0 z"
         inkscape:connector-curvature="0"
         style="fill:#7f4097" />
      <path
         id="path3394_1_"
         d="m 95.292373,114.87542 c -0.2,0.5 -0.7,1 -0.6,1.6 0.3,0.3 0.8,-0.2 1.1,-0.3 0.5,-0.3 1,-0.5 1.4,-1 0,-0.4 -0.7,-0.3 -1,-0.4 -0.3,0.1 -0.6,0 -0.9,0.1 z"
         inkscape:connector-curvature="0"
         style="fill:#7f4097" />
      <path
         id="path3396_1_"
         d="m 100.99237,109.97542 c -1.399997,0.1 -2.599997,0.9 -3.499997,1.9 -0.2,0.2 -0.8,0.7 -0.3,0.9 1.1,0.3 2.1,0.5 3.199997,0.9 1,0.2 2,-0.3 3,-0.5 0.5,-0.2 1.1,-0.2 1.6,-0.5 0.3,-0.4 -0.3,-0.7 -0.5,-1 -1.1,-0.8 -2.1,-1.7 -3.5,-1.7 z"
         inkscape:connector-curvature="0"
         style="fill:#7f4097" />
      <path
         id="path3398_1_"
         d="m 105.49237,114.67542 c -0.3,0.1 -1,-0.1 -1,0.4 0.4,0.6 1.1,0.7 1.7,1.1 0.2,0.2 0.8,0.4 0.8,-0.1 -0.2,-0.5 -0.4,-1 -0.7,-1.4 -0.2,0 -0.5,0 -0.8,0 z"
         inkscape:connector-curvature="0"
         style="fill:#7f4097" />
      <path
         id="path3400_1_"
         d="m 109.39237,114.97542 c -0.5,0.1 -0.2,0.8 -0.1,1.1 0.3,0.9 0.5,2 0.9,2.9 0.8,1 1.7,1.9 2.6,2.8 0.5,0.3 0.7,-0.4 0.8,-0.7 0.2,-1 0.2,-2 0.1,-3 -0.4,-1.6 -2,-2.5 -3.5,-2.9 -0.2,-0.2 -0.5,-0.2 -0.8,-0.2 z"
         inkscape:connector-curvature="0"
         style="fill:#7f4097" />
      <path
         id="path3402_1_"
         d="m 110.59237,122.87542 c -0.3,0.2 -0.1,0.8 -0.2,1.1 0.1,0.5 -0.1,1.1 0.2,1.5 0.4,0.1 0.6,-0.5 0.9,-0.8 0.3,-0.3 0.4,-0.7 0.1,-1 -0.3,-0.1 -0.4,-0.7 -1,-0.8 l 0,0 z"
         inkscape:connector-curvature="0"
         style="fill:#7f4097" />
      <path
         id="path3404_1_"
         d="m 112.99237,126.67542 c -1,0.8 -1.9,1.8 -2.7,2.7 -0.5,0.6 -0.4,1.4 -0.7,2.1 -0.1,0.7 -0.7,1.4 -0.4,2.1 1,0 2,-0.4 2.8,-0.8 0.9,-0.6 1.8,-1.6 1.7,-2.9 0,-1.1 0.2,-2.4 -0.6,-3.2 0,0 0,0 -0.1,0 z"
         inkscape:connector-curvature="0"
         style="fill:#7f4097" />
      <path
         id="path3406_1_"
         d="m 106.69237,131.87542 c -0.8,0.3 -1.5,0.7 -2.1,1.3 -0.1,0.5 0.6,0.4 0.9,0.5 0.4,0 1,0.1 1.1,-0.4 0.1,-0.4 0.5,-0.9 0.4,-1.3 -0.2,-0.1 -0.3,-0.1 -0.3,-0.1 z"
         inkscape:connector-curvature="0"
         style="fill:#7f4097" />
      <path
         id="path3408_1_"
         d="m 100.79237,116.37542 c -1.099997,0.2 -1.999997,0.9 -2.999997,1.3 -1.5,0.8 -3,1.7 -4.1,2.9 0,2.3 -0.1,4.7 0.1,7 0,0.6 0.5,1.1 1,1.4 1.7,1.3 3.6,2.4 5.499997,3.2 1.4,0.3 2.6,-0.7 3.8,-1.2 1.3,-0.8 2.7,-1.5 3.7,-2.6 0.5,-1 0.3,-2.1 0.4,-3.1 0,-1.5 0.1,-3 -0.2,-4.4 -0.3,-0.9 -1.3,-1.3 -1.9,-1.9 -1.4,-0.9 -3,-1.7 -4.5,-2.4 -0.2,-0.2 -0.5,-0.3 -0.8,-0.2 l 0,0 z m 0,4.9 c 0.9,-0.1 1.9,0.1 2.5,0.8 0.7,0.7 0.9,1.6 0.8,2.6 0,1 -0.9,1.8 -1.7,2.3 -0.8,0.4 -1.7,0.4 -2.499997,0.2 -0.8,-0.4 -1.6,-1.1 -1.9,-2 0,-0.9 -0.2,-1.9 0.5,-2.7 0.5,-0.7 1.4,-1.2 2.299997,-1.2 l 0,0 z"
         inkscape:connector-curvature="0"
         style="fill:#7f4097" />
      <path
         id="path3410_1_"
         d="m 88.992373,126.77542 c -0.5,0.2 -0.5,1 -0.7,1.4 -0.2,0.6 -0.4,1.3 -0.1,1.9 0.2,1.2 1,2.3 2.2,2.9 0.7,0.4 1.5,0.6 2.3,0.8 0.5,-0.1 0.2,-0.8 0.1,-1.1 -0.4,-1 -0.5,-2 -0.8,-3 -0.9,-0.9 -1.8,-1.9 -2.7,-2.8 -0.1,-0.1 -0.2,-0.2 -0.3,-0.1 l 0,0 z"
         inkscape:connector-curvature="0"
         style="fill:#7f4097" />
      <path
         id="path3412_1_"
         d="m 91.092373,123.07542 c -0.5,0.1 -0.6,0.7 -0.9,1 -0.4,0.5 0.3,0.9 0.5,1.3 0.1,0.3 0.6,0.7 0.7,0.2 0.1,-0.8 0.1,-1.7 -0.1,-2.5 -0.1,0 -0.1,0 -0.2,0 l 0,0 z"
         inkscape:connector-curvature="0"
         style="fill:#7f4097" />
      <path
         id="path3414_1_"
         d="m 94.592373,131.87542 c -0.2,0.5 0.3,0.9 0.4,1.3 0.1,0.4 0.5,0.5 0.8,0.4 0.4,-0.1 0.9,0 1.2,-0.3 0,-0.4 -0.6,-0.6 -0.9,-0.8 -0.5,-0.2 -0.9,-0.6 -1.4,-0.7 l -0.1,0.1 0,0 0,0 z"
         inkscape:connector-curvature="0"
         style="fill:#7f4097" />
      <path
         id="path3416_1_"
         d="m 100.59237,134.87542 c -0.699997,0.2 -1.399997,0.3 -2.099997,0.6 -0.5,0.1 -1.1,0 -1.4,0.5 0.1,0.6 0.7,1 1.1,1.4 1.3,1.3 3.599997,1.6 5.099997,0.5 0.7,-0.5 1.4,-1 1.8,-1.8 0.1,-0.5 -0.7,-0.4 -1,-0.5 -0.9,-0.2 -1.9,-0.4 -2.8,-0.8 -0.3,-0.1 -0.5,0.1 -0.7,0.1 z"
         inkscape:connector-curvature="0"
         style="fill:#7f4097" />
    </g>
  </g>
</svg>
