<?xml version="1.0" encoding="UTF-8" standalone="no"?>
<!-- Created with Inkscape (http://www.inkscape.org/) -->

<svg
   xmlns:dc="http://purl.org/dc/elements/1.1/"
   xmlns:cc="http://creativecommons.org/ns#"
   xmlns:rdf="http://www.w3.org/1999/02/22-rdf-syntax-ns#"
   xmlns:svg="http://www.w3.org/2000/svg"
   xmlns="http://www.w3.org/2000/svg"
   xmlns:sodipodi="http://sodipodi.sourceforge.net/DTD/sodipodi-0.dtd"
   xmlns:inkscape="http://www.inkscape.org/namespaces/inkscape"
   width="13.076296mm"
   height="25.264446mm"
   viewBox="0 0 46.333332 89.519692"
   id="svg6832"
   version="1.1"
   inkscape:version="0.91 r13725"
   sodipodi:docname="enabling.svg">
  <defs
     id="defs6834" />
  <sodipodi:namedview
     id="base"
     pagecolor="#ffffff"
     bordercolor="#666666"
     borderopacity="1.0"
     inkscape:pageopacity="0.0"
     inkscape:pageshadow="2"
     inkscape:zoom="2.8"
     inkscape:cx="23.166667"
     inkscape:cy="44.759847"
     inkscape:document-units="px"
     inkscape:current-layer="layer1"
     showgrid="false"
     inkscape:window-width="838"
     inkscape:window-height="994"
     inkscape:window-x="840"
     inkscape:window-y="0"
     inkscape:window-maximized="0"
     fit-margin-top="0"
     fit-margin-left="0"
     fit-margin-right="0"
     fit-margin-bottom="0" />
  <metadata
     id="metadata6837">
    <rdf:RDF>
      <cc:Work
         rdf:about="">
        <dc:format>image/svg+xml</dc:format>
        <dc:type
           rdf:resource="http://purl.org/dc/dcmitype/StillImage" />
        <dc:title></dc:title>
      </cc:Work>
    </rdf:RDF>
  </metadata>
  <g
     inkscape:label="Layer 1"
     inkscape:groupmode="layer"
     id="layer1"
     transform="translate(-12.429707,-122.80744)">
    <g
       id="g6783"
       transform="translate(-302.82933,-33.567977)">
      <path
         id="path3434_1_"
         d="m 354.09237,156.37542 c -1.2,0.5 -2.3,0.8 -3.5,1.2 -1.5,0.4 -2.9,0.9 -4.3,1.4 -1,0.3 -2,0.5 -2.9,0.9 -0.6,0.1 -1.2,0.5 -1.8,0.6 -0.7,0.3 -1.4,0.4 -2.1,0.7 -1.2,0.3 -2.3,0.8 -3.5,1.1 -0.7,0.2 -1.4,0.4 -2,0.7 -1.3,0.4 -2.6,0.8 -3.9,1.2 -0.7,0.2 -1.4,0.4 -2,0.7 -1.5,0.5 -3,0.9 -4.5,1.5 -1.9,0.5 -3.7,1.2 -5.6,1.8 -0.8,0.3 -1.7,0.6 -2.6,0.8 -0.3,0.3 0,0.7 0,1.1 0.4,1 0.6,2.2 0.9,3.2 0.4,1.5 0.7,3 1.1,4.5 0.3,2 0.8,3.9 1.1,5.9 0.2,1.4 0.4,2.8 0.6,4.3 0.3,1.9 0.2,3.8 0.6,5.6 0.1,4.2 0.1,8.4 0.1,12.6 0,1.3 -0.1,2.6 -0.2,3.9 -0.1,2.3 -0.5,4.7 -0.8,7 -0.2,1.4 -0.4,2.9 -0.7,4.3 -0.2,1.2 -0.5,2.3 -0.7,3.4 -0.5,2 -0.9,4 -1.5,6 -0.1,0.7 -0.5,1.4 -0.4,2 0.4,0.5 1.1,0.5 1.6,0.8 3.5,1.1 7,2.3 10.6,3.5 0.7,0.3 1.4,0.3 2.1,0.7 0.7,0.1 1.3,0.5 2,0.6 0.9,0.4 1.9,0.5 2.8,0.9 1.1,0.5 2.3,0.7 3.4,1.1 0.8,0.2 1.6,0.6 2.4,0.8 0.6,0.3 1.3,0.4 2,0.7 0.8,0.2 1.5,0.6 2.4,0.8 1.9,0.6 3.7,1.2 5.6,1.8 1.3,0.4 2.6,0.8 3.8,1.3 0.4,0.3 1,0 1,-0.5 0.3,-1.3 0.8,-2.5 1.1,-3.8 0.4,-0.9 0.4,-1.9 0.7,-2.8 0.3,-1.2 0.6,-2.4 0.9,-3.6 0.2,-1.1 0.5,-2.1 0.7,-3.2 0.3,-1 0.3,-2.1 0.6,-3.2 0.2,-1.6 0.6,-3.2 0.8,-4.8 0.2,-1.4 0.4,-2.8 0.6,-4.1 0.2,-2.1 0.5,-4.2 0.6,-6.3 0.2,-1.7 0.4,-3.5 0.4,-5.2 0,-5.6 0,-11.2 -0.1,-16.8 -0.1,-1.5 -0.3,-3.1 -0.4,-4.6 -0.2,-1.6 -0.3,-3.3 -0.6,-4.9 -0.3,-1.4 -0.3,-2.9 -0.6,-4.3 -0.3,-2.2 -0.8,-4.3 -1.1,-6.4 -0.6,-2.7 -1.2,-5.4 -1.9,-8 -0.2,-0.7 -0.3,-1.4 -0.6,-2.1 -0.2,-1 -0.4,-2.1 -0.8,-3 -0.7,-0.7 -0.6,-1.8 -1.4,-1.8 l 0,0 z m -24,33.4 c 1.8,0.1 3.5,1 4.8,2.3 1.8,1.6 3,3.7 4.2,5.8 0.1,0.3 0.5,0.6 0.7,0.2 0.4,-0.9 1,-1.6 1.5,-2.4 0.3,-0.7 0.9,-1.2 1.3,-1.8 1.3,-1.6 3,-3.1 5.1,-3.7 0.7,-0.1 1.5,-0.3 2.2,0 1.6,0.3 2.6,1.8 3.5,3 0.4,0.7 0.8,1.5 1,2.3 0.3,0.8 0.5,1.7 0.7,2.6 0.2,1.5 0.4,3 0.3,4.5 -0.3,1.2 -0.2,2.5 -0.6,3.6 -0.1,0.9 -0.6,1.8 -1,2.7 -0.8,1.6 -1.9,3.2 -3.6,4 -1.1,0.4 -2.4,0.4 -3.5,0 -2.1,-1.1 -3.7,-2.9 -5,-4.9 -0.8,-1 -1.4,-2.2 -2.2,-3.2 -0.4,0 -0.6,0.6 -0.9,0.9 -1.7,2.4 -3.3,5 -5.8,6.6 -0.7,0.4 -1.5,0.8 -2.4,0.7 -0.9,0.1 -1.9,-0.1 -2.6,-0.7 -1.3,-0.9 -2.3,-2.2 -2.9,-3.6 -0.5,-0.9 -0.7,-1.9 -1,-2.8 -0.4,-1.2 -0.3,-2.5 -0.4,-3.8 0,-1.8 -0.1,-3.6 0.6,-5.3 0.2,-0.8 0.5,-1.6 0.8,-2.3 0.2,-0.6 0.5,-1.1 0.8,-1.7 1.1,-1.5 2.6,-3 4.4,-3 l 0,0 z"
         inkscape:connector-curvature="0"
         style="fill:#0b7db0" />
      <path
         id="path3436_1_"
         d="m 330.39237,194.07542 c -0.8,-0.1 -1.4,0.4 -1.9,1 -0.5,0.5 -1,1 -1.2,1.7 -0.4,0.7 -0.5,1.4 -0.7,2.1 -0.5,2.5 -0.1,5.2 1.1,7.5 0.6,0.9 1.3,1.8 2.4,2 1.4,0.1 2.7,-0.8 3.6,-1.8 1.6,-1.5 2.9,-3.3 4.1,-5 0.2,-0.5 -0.3,-0.8 -0.4,-1.2 -0.8,-1.5 -1.7,-3 -2.8,-4.3 -1.2,-1 -2.6,-2.1 -4.2,-2 l 0,0 z"
         inkscape:connector-curvature="0"
         style="fill:#0b7db0" />
      <path
         id="path3438_1_"
         d="m 348.29237,194.17542 c -1,0.1 -1.8,0.7 -2.6,1.2 -0.8,0.7 -1.6,1.6 -2.2,2.5 -0.7,1.1 -1.5,2.2 -2.1,3.3 -0.1,0.6 0.5,1 0.7,1.5 1.3,1.8 2.5,3.6 4.2,5 0.6,0.4 1.2,0.9 2,0.8 0.6,-0.1 1.4,0.3 1.8,-0.4 0.9,-0.8 1.5,-1.8 2,-2.9 0.9,-2 0.7,-4.3 0.5,-6.5 -0.1,-0.6 -0.4,-1.1 -0.5,-1.6 -0.6,-1 -1.1,-2.1 -2.1,-2.6 -0.6,-0.1 -1.2,-0.4 -1.7,-0.3 z"
         inkscape:connector-curvature="0"
         style="fill:#0b7db0" />
    </g>
  </g>
</svg>
