<?xml version="1.0" encoding="UTF-8" standalone="no"?>
<!-- Created with Inkscape (http://www.inkscape.org/) -->

<svg
   xmlns:dc="http://purl.org/dc/elements/1.1/"
   xmlns:cc="http://creativecommons.org/ns#"
   xmlns:rdf="http://www.w3.org/1999/02/22-rdf-syntax-ns#"
   xmlns:svg="http://www.w3.org/2000/svg"
   xmlns="http://www.w3.org/2000/svg"
   xmlns:sodipodi="http://sodipodi.sourceforge.net/DTD/sodipodi-0.dtd"
   xmlns:inkscape="http://www.inkscape.org/namespaces/inkscape"
   width="24.033113mm"
   height="17.259245mm"
   viewBox="0 0 85.156701 61.154805"
   id="svg6832"
   version="1.1"
   inkscape:version="0.91 r13725"
   sodipodi:docname="evading.svg">
  <defs
     id="defs6834" />
  <sodipodi:namedview
     id="base"
     pagecolor="#ffffff"
     bordercolor="#666666"
     borderopacity="1.0"
     inkscape:pageopacity="0.0"
     inkscape:pageshadow="2"
     inkscape:zoom="2.8"
     inkscape:cx="-32.539566"
     inkscape:cy="-15.267327"
     inkscape:document-units="px"
     inkscape:current-layer="layer1"
     showgrid="false"
     inkscape:window-width="838"
     inkscape:window-height="994"
     inkscape:window-x="840"
     inkscape:window-y="0"
     inkscape:window-maximized="0"
     fit-margin-top="0"
     fit-margin-left="0"
     fit-margin-right="0"
     fit-margin-bottom="0" />
  <metadata
     id="metadata6837">
    <rdf:RDF>
      <cc:Work
         rdf:about="">
        <dc:format>image/svg+xml</dc:format>
        <dc:type
           rdf:resource="http://purl.org/dc/dcmitype/StillImage" />
        <dc:title></dc:title>
      </cc:Work>
    </rdf:RDF>
  </metadata>
  <g
     inkscape:label="Layer 1"
     inkscape:groupmode="layer"
     id="layer1"
     transform="translate(-68.13594,-91.145162)">
    <g
       id="g6754"
       transform="translate(-142.63143,42.989353)">
      <path
         id="path3420_1_"
         d="m 211.39237,48.175424 c -0.4,-0.1 -0.5,0.2 -0.5,0.5 -0.1,12.7 -0.1,25.5 -0.1,38.2 0,0.9 -0.1,1.9 0.1,2.8 1.9,0.2 3.9,0.2 5.8,0.4 4.6,0.3 9.2,1 13.7,1.9 1.7,0.3 3.4,0.8 5.1,1.1 1.4,0.5 2.8,0.7 4.1,1.2 3.2,1 6.5,2 9.7,3.3 1.3,0.5 2.6,1.1 3.9,1.6 2.2,0.899996 4.3,1.999996 6.4,3.099996 0.4,0.2 0.8,0.5 1.2,0.6 0.8,0.6 1.7,1 2.6,1.5 1.1,0.8 2.3,1.4 3.4,2.1 1.5,0.9 2.9,2 4.5,2.8 0.5,0.2 0.9,-0.5 1.1,-0.9 0.6,-0.9 1.4,-1.7 1.9,-2.6 2.7,-3.7 5.5,-7.399996 8.2,-11.199996 0.3,-0.4 0.5,-0.8 0.8,-1.2 2.2,-3 4.3,-6 6.5,-8.9 1.2,-1.6 2.4,-3.3 3.6,-4.9 0.8,-1.2 1.7,-2.2 2.5,-3.4 0.2,-0.5 -0.6,-0.7 -0.9,-1 -2.5,-1.7 -5.1,-3.5 -7.7,-5 -2.1,-1.3 -4.2,-2.5 -6.3,-3.6 -3.3,-1.7 -6.6,-3.5 -10.1,-4.9 -2.1,-0.9 -4.1,-1.9 -6.3,-2.7 -0.7,-0.3 -1.5,-0.6 -2.2,-0.9 -0.6,-0.3 -1.2,-0.4 -1.8,-0.7 -2.1,-0.7 -4.1,-1.5 -6.3,-2.1 -2.5,-0.8 -5.1,-1.5 -7.6,-2.2 -0.5,-0.2 -1.1,-0.1 -1.6,-0.2 0,-0.5 -0.7,-0.3 -0.9,-0.5 -3.2,-0.8 -6.4,-1.4 -9.7,-2 -2,-0.4 -4.1,-0.6 -6.1,-0.9 -2,-0.3 -4,-0.5 -6,-0.7 -2.3,-0.2 -4.7,-0.4 -7,-0.5 -1.4,0 -2.7,-0.1 -4,-0.1 l 0,0 z m 38,13.6 c 2.2,0 4.5,0.4 6.5,1.4 1.4,0.7 2.9,1.6 4,2.8 1.1,1.2 2.1,2.6 2.8,4.1 0.9,1.6 1.2,3.5 1.4,5.3 0.3,1.1 -0.1,2.2 -0.2,3.2 -0.5,3.7 -2.7,7.1 -5.7,9.3 -0.9,0.6 -1.8,1.3 -2.8,1.6 -2.2,1 -4.7,1.2 -7.1,1.1 -1,-0.1 -2.1,-0.3 -3,-0.6 -1.7,-0.6 -3.4,-1.4 -4.7,-2.7 -2.1,-1.8 -3.9,-4.1 -4.6,-6.8 -0.7,-2.2 -0.7,-4.5 -0.4,-6.8 0.3,-1.4 0.7,-2.8 1.4,-4.1 0.2,-0.4 0.3,-0.8 0.7,-1.1 1.3,-2.2 3.3,-3.9 5.5,-5.1 1.7,-1.1 4,-1.6 6.2,-1.6 l 0,0 z"
         inkscape:connector-curvature="0"
         style="fill:#794a1e" />
      <path
         id="path3422_1_"
         d="m 240.79237,70.475424 c -0.6,0.5 -0.7,1.3 -1.1,2 -0.5,1.1 -0.6,2.2 -0.5,3.3 0.1,1.1 -0.2,2.3 0.3,3.4 0.8,2.7 2.7,5 5.1,6.4 1.5,0.8 3.1,1.3 4.8,1.2 1.5,0.1 2.9,-0.1 4.3,-0.7 0.6,-0.3 1.2,-0.5 1.7,-0.9 0.1,-0.4 -0.4,-0.6 -0.6,-0.9 -4.4,-4.5 -8.9,-9 -13.4,-13.4 -0.2,-0.2 -0.4,-0.5 -0.6,-0.4 l 0,0 z"
         inkscape:connector-curvature="0"
         style="fill:#794a1e" />
      <path
         id="path3424_1_"
         d="m 249.29237,65.475424 c -1.8,0.1 -3.6,0.6 -5.1,1.5 -0.3,0.2 -0.7,0.6 -0.2,0.9 4.7,4.7 9.4,9.4 14.2,14 0.4,0.1 0.6,-0.5 0.8,-0.8 0.7,-1.5 1.2,-3.2 1.3,-4.9 -0.1,-2.3 -0.8,-4.6 -2.2,-6.4 -1,-1.1 -2,-2.2 -3.3,-3 -1.2,-0.6 -2.4,-1 -3.6,-1.2 -0.6,-0.1 -1.2,-0.1 -1.9,-0.1 l 0,0 z"
         inkscape:connector-curvature="0"
         style="fill:#794a1e" />
    </g>
  </g>
</svg>
