<?xml version="1.0" encoding="UTF-8" standalone="no"?>
<!-- Created with Inkscape (http://www.inkscape.org/) -->

<svg
   xmlns:dc="http://purl.org/dc/elements/1.1/"
   xmlns:cc="http://creativecommons.org/ns#"
   xmlns:rdf="http://www.w3.org/1999/02/22-rdf-syntax-ns#"
   xmlns:svg="http://www.w3.org/2000/svg"
   xmlns="http://www.w3.org/2000/svg"
   xmlns:sodipodi="http://sodipodi.sourceforge.net/DTD/sodipodi-0.dtd"
   xmlns:inkscape="http://www.inkscape.org/namespaces/inkscape"
   width="21.724609mm"
   height="24.017111mm"
   viewBox="0 0 76.976962 85.1"
   id="svg6832"
   version="1.1"
   inkscape:version="0.91 r13725"
   sodipodi:docname="genome.svg">
  <defs
     id="defs6834" />
  <sodipodi:namedview
     id="base"
     pagecolor="#ffffff"
     bordercolor="#666666"
     borderopacity="1.0"
     inkscape:pageopacity="0.0"
     inkscape:pageshadow="2"
     inkscape:zoom="2.8"
     inkscape:cx="38.488487"
     inkscape:cy="42.55"
     inkscape:document-units="px"
     inkscape:current-layer="layer1"
     showgrid="false"
     inkscape:window-width="838"
     inkscape:window-height="994"
     inkscape:window-x="840"
     inkscape:window-y="0"
     inkscape:window-maximized="0"
     fit-margin-top="0"
     fit-margin-left="0"
     fit-margin-right="0"
     fit-margin-bottom="0" />
  <metadata
     id="metadata6837">
    <rdf:RDF>
      <cc:Work
         rdf:about="">
        <dc:format>image/svg+xml</dc:format>
        <dc:type
           rdf:resource="http://purl.org/dc/dcmitype/StillImage" />
        <dc:title></dc:title>
      </cc:Work>
    </rdf:RDF>
  </metadata>
  <g
     inkscape:label="Layer 1"
     inkscape:groupmode="layer"
     id="layer1"
     transform="translate(2.892112,-125.01728)">
    <g
       id="g6801"
       transform="translate(-188.18193,-64.816611)">
      <path
         id="path3456_1_"
         d="m 224.54491,189.93389 c -1.7,0.6 -3.39999,1.1 -5.09999,1.7 -2.3,0.7 -4.5,1.5 -6.8,2.2 -3.6,1.2 -7.2,2.3 -10.8,3.5 -1.6,0.5 -3.2,1.1 -4.9,1.6 -1.3,0.4 -2.7,0.9 -4,1.3 -2.5,0.8 -5,1.6 -7.5,2.4 -0.4,0.3 0.1,0.9 0.1,1.3 0.5,1.2 0.8,2.5 1.4,3.7 0.4,1.4 1.1,2.7 1.6,4.1 0.5,0.8 0.6,1.8 1.1,2.6 1.3,3 2.7,5.9 4.2,8.8 1.9,3.9 4.1,7.6 6.4,11.2 0.5,0.5 0.7,1.3 1.2,1.8 0.8,1.2 1.5,2.4 2.4,3.5 4.2,6.2 9,12 14.1,17.5 4.79999,5 9.69999,9.8 15.09999,14.2 1.6,1.2 3.1,2.6 4.8,3.6 0.5,0 0.7,-0.6 1,-0.9 6.1,-8.3 12.1,-16.7 18.2,-25 1.7,-2.4 3.5,-4.7 5.1,-7.1 0.3,-0.4 0,-0.9 -0.4,-1.1 -3.3,-2.6 -6.4,-5.2 -9.4,-8.1 -4,-3.9 -7.8,-8.1 -11.2,-12.6 -2,-2.7 -4,-5.5 -5.7,-8.4 -0.5,-0.8 -1,-1.6 -1.5,-2.4 -1.9,-3.2 -3.5,-6.6 -5.2,-10 -0.7,-1.4 -1.2,-2.9 -1.9,-4.3 -0.5,-1.2 -1,-2.4 -1.4,-3.6 -0.3,-0.5 -0.3,-1.2 -0.8,-1.6 0,0.1 0,0.1 -0.1,0.1 l 0,0 z m -10.89999,17.2 c 2,0 4.1,0.2 5.8,1.3 0.8,0.7 1.7,1.3 2.2,2.3 0.39999,0.6 0.49999,1.3 0.39999,2 0,1.1 0,2.3 0.1,3.4 1,0.4 2.1,0.5 3.1,1 1.6,0.7 3,2 3.3,3.8 0.2,1 0.6,2.2 -0.1,3 -0.4,0.4 -1.1,0.7 -1.6,0.9 -0.2,-0.7 0.4,-1.4 0.3,-2.1 -0.3,-0.3 -0.7,0.3 -0.9,0.4 -1.6,1.1 -3.1,2.4 -4.79999,3.5 -0.2,0.1 0,-0.3 -0.1,-0.4 0.1,-0.5 0.1,-1.1 0.59999,-1.4 1.7,-1.4 3.5,-2.5 5.2,-4 0.4,-0.6 -0.3,-1.2 -0.7,-1.6 -0.4,-0.5 -1.1,-0.1 -1.5,0.2 -0.9,0.6 -1.7,1.4 -2.7,1.9 -0.4,0.1 -0.79999,-0.2 -1.09999,0.1 -0.9,0.5 -1.8,0.9 -2.6,1.4 -0.8,0.1 -1.3,0.8 -2,1.1 -0.4,0.2 -0.7,0.4 -1.1,0.5 0.8,-1.8 2.1,-3.5 2.8,-5.3 -0.1,-0.5 -0.7,-0.2 -1,-0.2 -2.1,0.3 -4.2,1 -6.3,1.3 -2.7,0.6 -5.4,0.3 -8.1,0.4 -1.2,0.1 -2.3,-0.4 -3.3,-0.8 -0.9,-0.4 -1.8,-0.8 -2.3,-1.6 -0.1,-0.4 0.6,-0.8 0.9,-0.5 0.2,0.3 0.6,0.4 0.9,0.2 1.7,-1.1 3.2,-2.5 4.9,-3.5 0.3,0 0.4,0.4 0.6,0.6 0.3,0.4 -0.4,0.7 -0.6,0.9 -1,0.8 -2.1,1.4 -3,2.3 -0.2,0.4 0.5,0.4 0.7,0.4 1.8,0 3.6,-0.1 5.4,-0.4 1.3,-0.1 2.7,-0.4 4,-0.6 1,-0.2 1.9,-0.5 2.7,-1.2 2.2,-1.6 4.4,-3.1 6.5,-4.8 0.3,-0.6 -0.2,-1.2 -0.6,-1.6 -0.3,-0.3 -0.7,-0.5 -1.1,-0.2 -1.9,1.2 -3.6,2.8 -5.5,3.9 -0.3,-0.2 -0.6,-0.5 -0.7,-0.9 1.3,-1.2 2.9,-2.1 4.2,-3.4 0.6,-0.6 -0.5,-0.4 -0.9,-0.4 -2.6,0.1 -5.2,0.5 -7.8,1.2 -1.3,0.4 -2.8,0.4 -4.1,1.1 -2,1.2 -3.7,2.8 -5.7,4 -0.3,0.2 -0.6,0.1 -0.8,-0.2 -0.2,-0.2 -0.3,-0.6 0,-0.8 1,-0.8 2.1,-1.5 3,-2.3 0.1,-0.5 -0.6,-0.4 -0.9,-0.4 -2.5,-0.1 -5.1,-0.1 -7.3,-1.2 -0.6,-0.4 -1.4,-0.8 -1.7,-1.5 0,-0.4 0.6,-0.7 0.9,-0.4 1.7,0.9 3.8,0.8 5.7,0.8 2.3,-0.2 4.6,-0.4 6.9,-0.9 2.6,-0.5 5.2,-1.2 7.8,-1.2 0.7,-0.1 1.4,-0.1 2,-0.1 l 0,0 z m 2.2,21.5 c 0.2,0.1 0.1,0.5 0.1,0.7 -0.1,0.9 -0.6,1.7 -0.9,2.5 -0.3,0.8 -0.6,1.6 -0.9,2.4 -0.1,0.3 0.2,0.7 0.5,0.5 0.4,-0.2 0.8,-0.6 1.2,-0.8 0.1,0.4 0.2,1 0.1,1.4 -0.7,0.7 -1.6,1.2 -2.3,1.9 0,0.7 -0.2,1.6 0.5,2 0.5,0.4 1,-0.2 1.4,-0.4 2.1,-1.5 4.1,-3.1 6.19999,-4.5 0.4,-0.6 0.7,-1.4 1.4,-1.7 0.7,-0.4 1.5,-0.9 2.3,-1.1 0,1.4 -0.8,2.7 -1.4,4 -0.6,1.2 -1.2,2.5 -1.8,3.7 0.1,0.5 0.9,0.4 1.3,0.3 3,-0.4 6,-1.2 9,-1.6 2.2,-0.2 4.5,-0.3 6.8,0 1.6,0.4 3.2,0.9 4.2,2.3 0.1,0.5 -0.7,0.7 -1,0.4 -1.5,-1.1 -3.4,-0.9 -5.1,-0.9 -0.7,0 -1.4,0.1 -1.9,0.6 -2.6,1.8 -5,3.8 -7.6,5.5 -0.2,0.1 -0.5,0.2 -0.6,-0.1 -0.2,-0.2 -0.6,-0.6 -0.2,-0.8 1.8,-1.4 3.6,-2.7 5.5,-4.1 0.2,-0.4 -0.4,-0.5 -0.7,-0.4 -1.5,0.4 -3.2,0.6 -4.7,1.2 -2.3,1.4 -4.3,3.3 -6.59999,4.7 -0.2,0.1 -0.7,-0.1 -0.7,0.3 0.1,0.9 0.6,1.7 1.5,1.9 1.39999,0.6 2.99999,0.3 4.49999,0.4 0.8,0 1.7,0.1 2.3,-0.5 2.2,-1.5 4.2,-3.2 6.4,-4.6 0.4,-0.2 0.8,0.3 0.8,0.7 -0.5,0.8 -1.4,1.2 -2,1.8 -0.8,0.6 -1.6,1.1 -2.3,1.8 -0.1,0.4 0.5,0.3 0.7,0.3 1.4,-0.3 2.8,-0.5 4.1,-1 2.3,-1.5 4.4,-3.2 6.6,-4.8 0.2,-0.2 0.5,-0.5 0.7,-0.2 0.2,0.2 0.5,0.5 0.5,0.8 -1.2,1.1 -2.7,2 -4,3.2 0,0.5 0.7,0.2 1,0.3 2,0.1 4.1,-0.1 6.1,0.6 1.1,0.4 2.2,0.9 3,1.8 0.2,0.2 0.2,0.6 -0.2,0.7 -0.6,0.4 -1,-0.9 -1.5,-0.3 -2.6,2 -5.2,3.9 -7.8,5.8 -0.3,0.3 -0.8,0.6 -1.1,0.1 -0.2,-0.2 -0.7,-0.5 -0.2,-0.7 2.4,-1.9 4.9,-3.7 7.3,-5.5 0.3,-0.4 -0.4,-0.5 -0.7,-0.5 -3.1,-0.2 -6.1,0.4 -9.1,1.2 -2.5,0.6 -5.1,1.2 -7.7,1 -1.5,0 -3.1,0.1 -4.6,0 -1.7,-0.4 -3.49999,-1 -4.69999,-2.4 -1.2,-1.6 -1.2,-3.8 -1,-5.8 0,-0.4 -0.1,-1 -0.6,-0.9 -1.6,-0.3 -3.2,-0.7 -4.5,-1.8 -0.9,-0.7 -1.7,-1.7 -1.8,-2.8 -0.4,-2.1 0,-4.3 0.5,-6.3 0.1,-0.6 0.4,-1.3 1.1,-1.5 1,-0.2 1.8,-0.6 2.6,-0.8 l 0,0 z m 23.89999,21.7 c 0.4,0 0.7,0.5 0.6,0.9 -0.6,0.7 -1.4,1.2 -2.2,1.8 -1.9,1.3 -3.6,2.8 -5.5,4 -0.5,0.3 -1,-0.5 -0.8,-0.9 2.3,-1.8 4.7,-3.5 7,-5.2 0.3,-0.3 0.6,-0.5 0.9,-0.6 z"
         inkscape:connector-curvature="0"
         style="fill:#204393" />
      <path
         id="path3458_1_"
         d="m 220.14492,213.23389 c -1.2,0.6 -2.1,1.5 -3.2,2.3 -0.3,0.1 -0.7,0.6 -0.2,0.7 0.9,0.1 1.8,-0.1 2.7,-0.1 0.4,-0.5 0.5,-1.2 0.7,-1.8 0,-0.3 0.5,-1 0,-1.1 z"
         inkscape:connector-curvature="0"
         style="fill:#204393" />
      <path
         id="path3460_1_"
         d="m 222.34491,218.13389 c -0.5,0 -1.09999,-0.1 -1.09999,0.5 -0.1,0.5 -0.5,1 -0.4,1.6 0.3,0.4 0.7,-0.2 0.99999,-0.4 0.5,-0.4 1.2,-0.8 1.7,-1.3 0,-0.5 -0.8,-0.4 -1.2,-0.4 z"
         inkscape:connector-curvature="0"
         style="fill:#204393" />
      <path
         id="path3462_1_"
         d="m 220.04492,237.13389 c -1,0.5 -1.9,1.3 -2.9,2 -0.2,0.1 -0.6,0.6 -0.1,0.7 0.8,0 1.6,0.1 2.4,0 0.2,-0.9 0.7,-1.7 0.8,-2.5 0,-0.1 -0.1,-0.2 -0.2,-0.2 z"
         inkscape:connector-curvature="0"
         style="fill:#204393" />
      <path
         id="path3464_1_"
         d="m 222.44491,242.13389 c -0.5,0 -1.39999,-0.1 -1.49999,0.6 -0.1,0.7 -0.6,1.3 -0.5,2 0.3,0.4 0.7,-0.2 0.9,-0.3 0.79999,-0.6 1.59999,-1.2 2.39999,-1.8 0.2,-0.4 -0.4,-0.5 -0.7,-0.4 -0.2,-0.1 -0.4,-0.1 -0.6,-0.1 l 0,0 z"
         inkscape:connector-curvature="0"
         style="fill:#204393" />
    </g>
  </g>
</svg>
