<?xml version="1.0" encoding="UTF-8" standalone="no"?>
<!-- Created with Inkscape (http://www.inkscape.org/) -->

<svg
   xmlns:dc="http://purl.org/dc/elements/1.1/"
   xmlns:cc="http://creativecommons.org/ns#"
   xmlns:rdf="http://www.w3.org/1999/02/22-rdf-syntax-ns#"
   xmlns:svg="http://www.w3.org/2000/svg"
   xmlns="http://www.w3.org/2000/svg"
   xmlns:sodipodi="http://sodipodi.sourceforge.net/DTD/sodipodi-0.dtd"
   xmlns:inkscape="http://www.inkscape.org/namespaces/inkscape"
   width="12.937717mm"
   height="25.178608mm"
   viewBox="0 0 45.842306 89.215541"
   id="svg6832"
   version="1.1"
   inkscape:version="0.91 r13725"
   sodipodi:docname="resisting.svg">
  <defs
     id="defs6834" />
  <sodipodi:namedview
     id="base"
     pagecolor="#ffffff"
     bordercolor="#666666"
     borderopacity="1.0"
     inkscape:pageopacity="0.0"
     inkscape:pageshadow="2"
     inkscape:zoom="2.8"
     inkscape:cx="22.921153"
     inkscape:cy="44.607773"
     inkscape:document-units="px"
     inkscape:current-layer="layer1"
     showgrid="false"
     inkscape:window-width="838"
     inkscape:window-height="994"
     inkscape:window-x="840"
     inkscape:window-y="0"
     inkscape:window-maximized="0"
     fit-margin-top="0"
     fit-margin-left="0"
     fit-margin-right="0"
     fit-margin-bottom="0" />
  <metadata
     id="metadata6837">
    <rdf:RDF>
      <cc:Work
         rdf:about="">
        <dc:format>image/svg+xml</dc:format>
        <dc:type
           rdf:resource="http://purl.org/dc/dcmitype/StillImage" />
        <dc:title></dc:title>
      </cc:Work>
    </rdf:RDF>
  </metadata>
  <g
     inkscape:label="Layer 1"
     inkscape:groupmode="layer"
     id="layer1"
     transform="translate(-12.675221,-122.95951)">
    <path
       style="fill:#bbc2c6"
       inkscape:connector-curvature="0"
       d="m 19.464664,122.95951 c -0.5,0.1 -0.4,0.7 -0.6,1.1 -0.2,0.7 -0.4,1.5 -0.6,2.2 -0.3,1.1 -0.5,2.3 -0.9,3.3 -0.4,1.5 -0.8,3.1 -1.1,4.6 -0.4,1.4 -0.6,2.8 -0.8,4.2 -0.4,1.1 -0.3,2.3 -0.7,3.5 -0.1,1 -0.3,2 -0.5,3 -0.1,1.1 -0.3,2.2 -0.5,3.3 -0.1,1.4 -0.3,2.8 -0.5,4.1 -0.1,1 -0.2,2.1 -0.2,3.1 0.2,0.4 -0.2,0.8 -0.1,1.2 -0.4,5 -0.3,10 -0.2,15 0,3.1 0.1,6.2 0.4,9.3 0.1,1.6 0.3,3.2 0.5,4.9 0.1,1.6 0.4,3.1 0.6,4.7 0.2,0.9 0.4,1.8 0.4,2.7 0.2,0.7 0.4,1.5 0.4,2.2 0.2,0.7 0.4,1.4 0.4,2.2 0.3,1.2 0.5,2.5 0.8,3.7 0.1,1 0.5,1.8 0.6,2.8 0.4,1.1 0.5,2.4 1,3.5 0.4,1.3 0.7,2.6 1.1,3.9 0,0.4 0.2,0.8 0.7,0.7 0.6,-0.1 1.2,-0.4 1.8,-0.5 0.7,-0.3 1.5,-0.4 2.2,-0.7 0.7,-0.2 1.4,-0.5 2.1,-0.7 0.7,-0.4 1.6,-0.4 2.4,-0.8 2.7,-0.9 5.4,-1.7 8,-2.6 0.8,-0.2 1.5,-0.6 2.3,-0.8 0.8,-0.3 1.6,-0.6 2.5,-0.8 0.6,-0.4 1.4,-0.4 2.1,-0.7 0.6,-0.2 1.1,-0.5 1.7,-0.6 0.7,-0.3 1.4,-0.4 2.1,-0.7 0.7,-0.1 1.4,-0.5 2.1,-0.6 1.2,-0.4 2.4,-0.7 3.5,-1.1 1.4,-0.4 2.9,-0.9 4.3,-1.4 0.6,-0.1 1,-0.4 1.6,-0.5 0.4,-0.4 -0.1,-0.9 -0.2,-1.3 -0.4,-1.4 -0.8,-2.8 -1.1,-4.2 -0.3,-0.9 -0.4,-1.8 -0.7,-2.7 -0.2,-1.1 -0.5,-2.1 -0.6,-3.3 -0.2,-0.8 -0.4,-1.5 -0.4,-2.3 -0.2,-0.7 -0.4,-1.5 -0.4,-2.2 -0.2,-1.4 -0.5,-2.8 -0.6,-4.3 -0.4,-2.7 -0.3,-5.5 -0.6,-8.2 -0.2,-0.3 -0.8,-0.1 -1.1,-0.2 -4.6,-0.1 -9.2,-0.2 -13.7,-0.1 -0.5,0 -0.3,0.7 -0.4,1.1 -0.1,2 0,4.1 -0.2,6.2 -0.1,0.6 -0.8,0.2 -1.3,0.3 -1.2,0 -2.4,0 -3.6,-0.1 -0.2,-2.4 -0.2,-4.9 -0.2,-7.4 -0.3,-0.4 -1,-0.1 -1.5,-0.2 -2.1,0 -4.2,-0.1 -6.2,-0.1 -0.7,0.1 -1.5,0.1 -1.9,-0.5 0,-1.8 0,-3.7 0.3,-5.5 0.3,-0.2 1,0 1.5,-0.1 2.6,0 5.1,-0.1 7.7,-0.1 0.3,-0.3 0.1,-0.8 0.2,-1.2 0.1,-2.1 0.1,-4.2 0.2,-6.3 1.7,0.1 3.4,-0.1 5.1,0.1 0.2,0.8 0,1.7 0.1,2.6 0,1.6 -0.1,3.2 0,4.8 0.5,0.2 1.1,0 1.6,0.1 4.3,0 8.6,0.1 12.9,0 0.4,0 0.8,-0.2 0.8,-0.7 0.2,-2.9 0.3,-5.7 0.6,-8.6 0.1,-1.5 0.4,-3 0.6,-4.5 0.2,-0.7 0.4,-1.3 0.3,-2.1 0.1,-1 0.4,-1.9 0.5,-2.9 0.3,-1 0.4,-2.1 0.7,-3.1 0.1,-1 0.5,-1.9 0.6,-2.9 0.3,-1.1 0.7,-2.2 0.9,-3.3 0.1,-0.2 0.3,-0.4 0.1,-0.6 -1.1,-0.7 -2.5,-0.9 -3.8,-1.4 -1.2,-0.3 -2.3,-0.8 -3.5,-1.1 -2.5,-0.8 -5,-1.7 -7.6,-2.5 -0.6,-0.1 -1.1,-0.5 -1.7,-0.5 -0.9,-0.4 -1.8,-0.5 -2.6,-0.9 -1.6,-0.5 -3.2,-1.1 -4.8,-1.5 -0.9,-0.5 -1.8,-0.6 -2.8,-0.9 -0.6,-0.3 -1.2,-0.3 -1.8,-0.6 -0.7,-0.1 -1.4,-0.5 -2.1,-0.7 -0.7,-0.3 -1.4,-0.3 -2,-0.7 -1.4,-0.4 -2.8,-1 -4.3,-1.4 -0.5,-0.2 -1.2,-0.6 -1.9,-0.7 l 0,0 z"
       id="path3466_1_" />
  </g>
</svg>
