<?xml version="1.0" encoding="UTF-8" standalone="no"?>
<!-- Created with Inkscape (http://www.inkscape.org/) -->

<svg
   xmlns:dc="http://purl.org/dc/elements/1.1/"
   xmlns:cc="http://creativecommons.org/ns#"
   xmlns:rdf="http://www.w3.org/1999/02/22-rdf-syntax-ns#"
   xmlns:svg="http://www.w3.org/2000/svg"
   xmlns="http://www.w3.org/2000/svg"
   xmlns:sodipodi="http://sodipodi.sourceforge.net/DTD/sodipodi-0.dtd"
   xmlns:inkscape="http://www.inkscape.org/namespaces/inkscape"
   width="23.98889mm"
   height="17.177053mm"
   viewBox="0 0 85.000003 60.863575"
   id="svg6832"
   version="1.1"
   inkscape:version="0.91 r13725"
   sodipodi:docname="sustaining.svg">
  <defs
     id="defs6834" />
  <sodipodi:namedview
     id="base"
     pagecolor="#ffffff"
     bordercolor="#666666"
     borderopacity="1.0"
     inkscape:pageopacity="0.0"
     inkscape:pageshadow="2"
     inkscape:zoom="1.4"
     inkscape:cx="-88.761588"
     inkscape:cy="-97.407359"
     inkscape:document-units="px"
     inkscape:current-layer="layer1"
     showgrid="false"
     inkscape:window-width="1680"
     inkscape:window-height="994"
     inkscape:window-x="0"
     inkscape:window-y="0"
     inkscape:window-maximized="1"
     fit-margin-top="0"
     fit-margin-left="0"
     fit-margin-right="0"
     fit-margin-bottom="0" />
  <metadata
     id="metadata6837">
    <rdf:RDF>
      <cc:Work
         rdf:about="">
        <dc:format>image/svg+xml</dc:format>
        <dc:type
           rdf:resource="http://purl.org/dc/dcmitype/StillImage" />
        <dc:title></dc:title>
      </cc:Work>
    </rdf:RDF>
  </metadata>
  <g
     inkscape:label="Layer 1"
     inkscape:groupmode="layer"
     id="layer1"
     transform="translate(-66.071427,-90.501845)">
    <path
       style="fill:#079e58"
       inkscape:connector-curvature="0"
       d="m 147.37143,90.517019 c -1.1,0 -2.1,0 -3.1,0.2 -2.4,0.2 -4.7,0.2 -7.1,0.6 -1.8,0.1 -3.5,0.5 -5.2,0.6 -1.6,0.3 -3.1,0.4 -4.7,0.8 -1.2,0.2 -2.3,0.5 -3.5,0.6 -1.7,0.4 -3.5,0.7 -5.2,1.1 -0.7,0 -1.3,0.3 -1.9,0.5 -0.8,0.1 -1.4,0.5 -2.2,0.6 -1.00001,0.3 -2.00001,0.6 -3.00001,0.8 -0.7,0.1 -1.3,0.5 -1.9,0.6 -0.8,0.3 -1.8,0.5 -2.6,0.9 -1.3,0.4 -2.6,0.9 -3.9,1.3 -0.6,0.1 -1,0.5 -1.6,0.5 -1.1,0.500001 -2.399996,0.800001 -3.499996,1.300001 -0.9,0.3 -1.7,0.8 -2.6,1 -1.099997,0.5 -2.199997,0.9 -3.199997,1.4 -0.5,0.2 -1,0.4 -1.4,0.6 -0.5,0.2 -0.9,0.5 -1.4,0.6 -0.4,0.3 -1,0.4 -1.5,0.7 -1.6,0.7 -3.1,1.5 -4.6,2.3 -0.9,0.4 -1.8,1 -2.7,1.4 -0.4,0.1 -0.8,0.4 -1.2,0.5 -0.5,0.6 -1.3,0.7 -1.9,1.2 -1.3,0.7 -2.6,1.5 -3.8,2.3 -0.5,0.1 -0.9,0.6 -1.3,0.8 -1,0.6 -2,1.1 -2.8,1.8 -0.9,0.4 -1.6,1.2 -2.4,1.6 -0.4,0.3 -0.8,0.5 -1.1,0.9 1.1,1.6 2.3,3.2 3.4,4.8 0.9,1.2 1.7,2.4 2.6,3.6 0.6,0.9 1.3,1.8 2,2.7 0.5,0.7 1.1,1.3 1.5,2.1 0.8,1 1.6,2.1 2.4,3.2 1,1.4 1.9,2.8 3,4.1 0.8,1.1 1.6,2.2 2.4,3.3 1,1.4 2.1,2.8 3.1,4.2 0.5,0.5 0.8,1.1 1.2,1.6 0.8,1.2 1.7,2.2 2.5,3.4 0.2,0.3 0.5,0.5 0.8,0.2 1.1,-0.9 2.4,-1.5 3.499997,-2.3 0.6,-0.4 1.1,-0.8 1.8,-1.1 0.4,-0.3 0.9,-0.5 1.3,-0.8 0.6,-0.2 1.1,-0.7 1.7,-1 0.4,-0.3 0.899996,-0.4 1.299996,-0.7 0.8,-0.3 1.5,-0.9 2.4,-1.3 0.7,-0.3 1.3,-0.7 1.9,-1 1.1,-0.4 1.9,-1.1 3,-1.4 0.4,-0.1 1.1,-0.4 0.8,-0.9 -0.5,-1.2 -1,-2.3 -1.6,-3.5 -0.1,-0.6 -0.5,-1.1 -0.7,-1.7 -0.3,-0.5 -0.4,-1 -0.7,-1.4 -0.5,-1.4 -1.2,-2.7 -1.8,-4.1 -0.4,-0.9 -0.8,-1.8 -1.1,-2.7 -0.3,-0.3 -0.3,-0.8 -0.5,-1.1 -0.3,-0.8 -0.7,-1.6 -1.1,-2.4 -0.2,-0.8 -0.8,-1.5 -0.9,-2.3 -0.1,-0.6 0.6,-0.6 0.9,-0.9 0.7,-0.4 1.4,-0.5 2,-0.9 1.3,-0.5 2.7,-1.1 4,-1.8 0.6,-0.1 1.1,-0.5 1.6,-0.7 0.5,-0.3 1.1,-0.3 1.5,-0.7 0.5,-0.2 1,-0.5 1.5,-0.6 0.4,-0.4 1,-0.4 1.5,-0.7 0.5,-0.1 1.00001,-0.5 1.50001,-0.6 0.6,-0.3 1.3,-0.5 1.9,-0.9 -0.2,-0.6 -0.8,-0.9 -1.2,-1.4 -1.90001,-2 -3.80001,-3.9 -5.60001,-5.9 0.4,-0.4 1.1,-0.1 1.6,0.1 0.8,0.2 1.7,0.4 2.50001,0.6 0.6,0 1.2,0.1 1.7,0.3 0.9,0.2 1.8,0.1 2.7,0.5 1.4,0.2 2.8,0.2 4.2,0.4 4.3,0.2 8.6,0.1 12.9,0.3 0.3,0 -0.1,0.4 -0.2,0.5 -1.8,2 -3.8,3.9 -5.5,6 -0.7,0.8 -1.4,1.5 -1.9,2.3 -1.8,2.1 -3.3,4.4 -4.8,6.6 -0.5,0.7 -0.9,1.4 -1.3,2.1 -0.5,0.6 -0.8,1.4 -1.3,2.2 0,0.4 -0.2,0.7 -0.6,0.7 -0.4,0 -0.2,-0.6 -0.3,-0.8 -0.1,-2 0,-4.1 -0.4,-6.1 -0.1,-1 -0.1,-2.1 -0.3,-3.1 -0.6,0 -1.1,0.6 -1.7,0.7 -0.9,0.4 -1.8,0.7 -2.7,1.1 -0.3,0.3 -0.70001,0.2 -1.00001,0.5 -1.4,0.7 -2.9,1.2 -4.3,1.9 -0.6,0.2 -1.3,0.4 -1.7,0.9 -0.1,0.5 0.4,0.9 0.5,1.3 0.9,2 1.7,3.9 2.6,5.9 0.5,1.5 1.2,2.9 1.8,4.3 0.2,0.5 0.4,1 0.7,1.5 0.2,0.6 0.4,1.3 0.90001,1.8 0.5,0.1 0.9,-0.4 1.4,-0.4 0.7,-0.3 1.6,-0.4 2.3,-0.8 0.8,-0.3 1.6,-0.6 2.5,-0.8 1.1,-0.4 2.2,-0.6 3.3,-1 0.8,-0.2 1.6,-0.5 2.5,-0.6 0.9,-0.3 1.8,-0.4 2.7,-0.7 1.1,-0.1 2.1,-0.5 3.2,-0.7 1.9,-0.4 3.8,-0.8 5.7,-1 1.2,-0.3 2.5,-0.3 3.7,-0.5 1.7,-0.1 3.4,-0.2 5,-0.5 1.6,-0.2 3.2,-0.1 4.7,-0.2 0.2,-0.5 0,-1.2 0.1,-1.7 0,-13.1 0,-26.2 0,-39.300001 -0.3,-0.4 -1,-0.1 -1.5,-0.2 -0.9,0 -1.5,0 -2.2,0 l 0,0 z"
       id="path3418_1_" />
  </g>
</svg>
