<?xml version="1.0" encoding="UTF-8" standalone="no"?>
<!-- Created with Inkscape (http://www.inkscape.org/) -->

<svg
   xmlns:dc="http://purl.org/dc/elements/1.1/"
   xmlns:cc="http://creativecommons.org/ns#"
   xmlns:rdf="http://www.w3.org/1999/02/22-rdf-syntax-ns#"
   xmlns:svg="http://www.w3.org/2000/svg"
   xmlns="http://www.w3.org/2000/svg"
   xmlns:sodipodi="http://sodipodi.sourceforge.net/DTD/sodipodi-0.dtd"
   xmlns:inkscape="http://www.inkscape.org/namespaces/inkscape"
   width="21.640081mm"
   height="23.919174mm"
   viewBox="0 0 76.677454 84.75298"
   id="svg6832"
   version="1.1"
   inkscape:version="0.91 r13725"
   sodipodi:docname="Tumor-promoting.svg">
  <defs
     id="defs6834" />
  <sodipodi:namedview
     id="base"
     pagecolor="#ffffff"
     bordercolor="#666666"
     borderopacity="1.0"
     inkscape:pageopacity="0.0"
     inkscape:pageshadow="2"
     inkscape:zoom="2.8"
     inkscape:cx="38.338726"
     inkscape:cy="42.376491"
     inkscape:document-units="px"
     inkscape:current-layer="layer1"
     showgrid="false"
     inkscape:window-width="838"
     inkscape:window-height="994"
     inkscape:window-x="840"
     inkscape:window-y="0"
     inkscape:window-maximized="0"
     fit-margin-top="0"
     fit-margin-left="0"
     fit-margin-right="0"
     fit-margin-bottom="0" />
  <metadata
     id="metadata6837">
    <rdf:RDF>
      <cc:Work
         rdf:about="">
        <dc:format>image/svg+xml</dc:format>
        <dc:type
           rdf:resource="http://purl.org/dc/dcmitype/StillImage" />
        <dc:title></dc:title>
      </cc:Work>
    </rdf:RDF>
  </metadata>
  <g
     inkscape:label="Layer 1"
     inkscape:groupmode="layer"
     id="layer1"
     transform="translate(2.7423514,-125.19079)">
    <g
       id="g6788"
       transform="translate(-217.77125,-51.438867)">
      <path
         id="path3440_1_"
         d="m 252.8661,176.92966 c -0.4,0.1 -0.3,0.7 -0.6,1 -0.6,1.5 -1.1,3 -1.8,4.4 -0.2,0.5 -0.4,1 -0.7,1.6 -0.4,1.1 -1,2.1 -1.5,3.2 -0.9,1.9 -1.8,3.8 -2.9,5.6 -0.3,0.5 -0.4,1.1 -0.8,1.5 -0.8,1.4 -1.7,2.8 -2.5,4.1 -0.4,0.6 -0.7,1.3 -1.2,1.9 -0.3,0.7 -0.8,1.2 -1.2,1.8 -0.4,0.7 -1,1.4 -1.4,2.1 -0.7,1 -1.4,1.9 -2.1,2.8 -1.7,2.3 -3.5,4.5 -5.4,6.6 -1.8,2.2 -3.9,4.1 -5.9,6.2 -3,2.9 -6.1,5.6 -9.4,8.2 -0.3,0.2 -0.7,0.6 -0.2,0.9 0.5,0.6 0.9,1.4 1.5,2 1.4,2 2.9,3.9 4.3,5.9 1,1.2 1.8,2.6 2.8,3.8 0.5,0.4 0.7,1.1 1.2,1.5 1,1.3 1.9,2.7 2.9,4 1.3,1.7 2.5,3.4 3.7,5.1 1.2,1.6 2.3,3.2 3.5,4.8 1.3,1.7 2.5,3.5 3.8,5.2 0.2,0.2 0.5,0.4 0.7,0.1 1.6,-1.1 3.1,-2.4 4.7,-3.6 1.7,-1.5 3.5,-3 5.2,-4.6 3.5,-3.1 6.8,-6.5 10.1,-9.9 2.5,-2.7 4.9,-5.5 7.2,-8.4 1.7,-2.1 3.2,-4.3 4.9,-6.4 0.2,-0.3 0.4,-0.7 0.7,-0.9 0.6,-0.9 1.3,-1.8 1.8,-2.7 0.6,-0.7 0.9,-1.4 1.4,-2.1 0.3,-0.7 0.8,-1.3 1.2,-2 0.4,-0.7 0.9,-1.3 1.3,-2.1 0.8,-1.1 1.3,-2.4 2.1,-3.6 0.3,-0.7 0.8,-1.2 1,-1.9 0.3,-0.4 0.4,-0.9 0.7,-1.3 0.4,-0.8 0.8,-1.6 1.2,-2.3 0.7,-1.1 1.2,-2.3 1.7,-3.5 0.3,-0.4 0.4,-0.9 0.7,-1.3 0.3,-0.7 0.7,-1.4 1,-2.2 0.1,-0.3 0.4,-0.5 0.4,-0.9 0.3,-0.9 0.8,-1.8 1.1,-2.7 0.4,-0.8 0.7,-1.8 1.1,-2.6 0.2,-0.6 0.5,-1.2 0.7,-1.8 0.3,-0.6 0.3,-1.2 0.6,-1.7 0.1,-0.6 0.5,-1.2 0.6,-1.8 0.3,-0.5 0.2,-1.1 0.6,-1.5 0.2,-0.4 -0.4,-0.4 -0.6,-0.5 -0.7,-0.4 -1.5,-0.4 -2.1,-0.7 -0.8,-0.3 -1.7,-0.4 -2.4,-0.8 -0.8,-0.2 -1.6,-0.4 -2.4,-0.7 -1.1,-0.4 -2.3,-0.7 -3.4,-1.1 -0.7,-0.1 -1.3,-0.5 -2.1,-0.6 -0.5,-0.2 -0.9,-0.4 -1.4,-0.5 -0.5,-0.3 -1,-0.3 -1.5,-0.5 -0.5,-0.3 -1.2,-0.3 -1.7,-0.6 -1.6,-0.5 -3.2,-1.1 -4.8,-1.6 -1.3,-0.4 -2.5,-0.9 -3.8,-1.3 -0.7,-0.2 -1.4,-0.4 -2,-0.6 -0.6,-0.3 -1.2,-0.3 -1.8,-0.6 -0.6,-0.1 -1.1,-0.3 -1.6,-0.5 -0.7,-0.1 -1.4,-0.5 -2.1,-0.6 -1.6,-0.6 -3.2,-1 -4.7,-1.6 0.1,0.4 -0.2,0.3 -0.4,0.3 l 0,0 z m 0.4,21.8 c 0.3,0.3 0.1,0.8 0.2,1.1 0.2,1.3 0.4,2.7 1.1,3.8 0.8,1.2 1.5,2.4 2,3.7 0.2,0.5 0.4,0.9 0.4,1.5 0,1.6 -0.1,3.2 0,4.8 0.1,0.4 0.6,0.2 0.6,-0.1 0.5,-1 0.2,-2.1 0.3,-3.2 0,-0.6 0,-1.2 0,-1.9 0.8,0 1.2,0.9 1.7,1.5 0.5,0.7 1.1,1.5 1,2.4 -0.1,1.1 0,2.2 -0.3,3.3 0,0.9 -0.1,1.8 0,2.7 0.2,0.5 0.8,0.7 1.2,0.3 0.9,-0.7 1.8,-1.6 1.9,-2.8 0.3,-0.9 0.3,-1.8 0.5,-2.7 0.3,0 0.5,0.5 0.7,0.7 0.5,0.9 0.9,1.9 1,2.9 -0.1,0.6 -0.4,1.1 -0.5,1.7 -0.2,0.5 -0.4,1 -0.5,1.5 -0.4,0.7 -0.6,1.5 -0.8,2.2 0,0.4 0.5,0.5 0.7,0.2 0.6,-0.6 0.8,-1.5 1.4,-2.1 0.2,-0.3 0.7,-0.3 0.8,0.1 0.3,1.3 -0.2,2.6 -0.3,3.9 -0.4,1.4 -0.8,2.8 -1.5,4.1 -0.3,0.3 -0.3,0.8 -0.6,1.1 -0.6,1.2 -1.7,2.1 -2.7,3 -1.3,1 -3.1,1.7 -4.7,1.4 -0.3,-0.2 0.1,-0.7 0.2,-0.9 0.7,-1 1.1,-2.1 1.6,-3.2 0.5,-1.1 0.7,-2.3 0.6,-3.5 -0.2,-0.3 -0.5,0 -0.5,0.3 -0.2,0.5 -0.4,1.1 -0.8,1.4 -0.4,0.2 -1,0.2 -1.1,-0.3 -0.3,-0.7 0,-1.5 0.1,-2.2 0.1,-0.3 -0.4,-0.4 -0.5,-0.1 -0.2,0.5 -1.1,0.6 -1.2,0 -0.3,-1 0.3,-2 0.2,-3.1 0.1,-0.7 -0.1,-1.4 -0.4,-2 -0.1,-0.5 -0.3,-1.1 -0.7,-1.5 -0.4,0.1 -0.2,0.7 -0.2,1.1 0.2,1 0.5,2.1 0.3,3.2 -0.2,0.5 -0.8,0.7 -1.3,0.5 -0.5,0 -0.8,-0.4 -0.9,-0.8 -0.4,-0.4 -0.4,-1 -0.7,-1.4 -0.5,-0.1 -0.5,0.6 -0.5,0.9 -0.3,1.4 0.4,2.8 0.8,4.1 0.1,0.5 0.3,1.2 -0.3,1.5 -0.7,0 -1.2,-0.6 -1.6,-1.1 -0.6,-0.9 -1.1,-1.8 -1.2,-2.9 0,-0.4 -0.5,-0.3 -0.6,0 -0.3,0.8 0.3,1.6 0.1,2.3 0.1,0.4 -0.1,0.9 -0.5,1.1 -0.3,0.4 -1.1,-0.1 -1.2,0.6 0.1,0.4 0.4,0.7 0.5,1.2 0.3,0.5 0.5,1 1,1.4 0.9,1 2.1,1.9 2.9,3 0.2,0.3 0.1,0.8 -0.3,0.6 -1.1,-0.3 -2.2,-0.3 -3.3,-0.8 -1.2,-0.4 -2.3,-1 -3.1,-1.9 -1,-0.9 -1.7,-2.2 -2.1,-3.4 -0.3,-0.8 -0.5,-1.5 -0.6,-2.3 -0.3,-1 -0.3,-2.2 -0.7,-3.2 -0.1,-1.1 -0.6,-2.1 -0.9,-3.2 -0.1,-0.3 0.3,-0.3 0.4,-0.1 0.9,0.7 1.6,1.8 2.6,2.3 0.5,0.1 0.8,-0.5 1.1,-0.7 1,-0.9 0.9,-2.4 0.8,-3.6 -0.1,-1 -0.4,-2 -0.8,-2.8 -0.2,-0.4 -0.6,-0.7 -0.6,-1.2 0.2,-0.3 0.6,0.1 0.9,0.2 0.6,0.5 1.3,0.9 2,1.2 0.5,0.3 1.3,0.3 1.5,-0.4 0.3,-1.2 0.2,-2.5 0.1,-3.7 0,-1 -0.6,-1.8 -1.2,-2.4 -0.6,-0.8 -0.6,-1.9 -0.5,-2.9 0.1,-0.3 0.5,-0.8 0.8,-0.4 0.6,0.9 1,2 1.9,2.7 0.4,0.5 0.9,0.7 1.5,0.9 0.9,0.4 1,1.4 1.8,1.9 0.6,0.1 0.7,-0.6 0.8,-1 0.1,-1.2 0,-2.4 -0.5,-3.5 -0.6,-1.4 -0.3,-2.9 -0.4,-4.3 0,-0.6 0,-1.2 0.3,-1.7 0.1,-0.6 0.3,-0.9 0.8,-1 l 0,0 z"
         inkscape:connector-curvature="0"
         style="fill:#dd7a26" />
      <path
         id="path3442_1_"
         d="m 254.5661,211.32966 c -0.5,0.4 -0.8,1.1 -1,1.6 -0.2,0.6 0.4,1 0.9,1 0.5,0.1 0.7,-0.3 0.7,-0.7 0.1,-0.5 -0.1,-1 -0.3,-1.5 0.1,-0.2 0,-0.5 -0.3,-0.4 z"
         inkscape:connector-curvature="0"
         style="fill:#dd7a26" />
    </g>
  </g>
</svg>
